<svg width="1856" height="281" viewBox="0 0 1856 281" fill="none" xmlns="http://www.w3.org/2000/svg">
<path d="M0 268.366V8.61066H84.5241V279.369C84.5241 296.59 89.8069 311.42 113.819 311.42C135.911 311.42 142.634 292.285 142.634 276.977V8.61066H227.159V268.366C227.159 329.12 199.784 376 113.339 376C41.7818 376 0 342.036 0 268.366Z" fill="#F2F2F2"/>
<path d="M254.372 247.318H332.652V272.672C332.652 293.242 339.376 311.42 366.27 311.42C385.96 311.42 394.605 293.72 394.605 275.542C394.605 245.405 369.632 233.924 347.54 220.529C321.607 205.7 299.515 191.827 283.667 173.649C268.299 155.471 259.174 133.466 259.174 101.893C259.174 34.4427 299.995 0 365.309 0C438.788 0 476.247 48.7939 472.405 116.244H394.605C393.644 95.1959 394.605 66.4936 366.75 64.5801C349.461 63.145 339.376 72.7124 337.455 88.4987C335.054 110.025 346.099 121.028 362.908 132.509C394.605 152.6 421.979 165.038 441.669 183.216C461.36 201.394 472.886 225.313 472.886 268.845C472.886 337.73 434.466 376 364.349 376C287.029 376 254.372 332.947 254.372 285.588V247.318Z" fill="#F2F2F2"/>
<path d="M708.208 367.389H508.904V8.61066H702.445V80.3664H593.429V146.382H699.084V218.137H593.429V295.634H708.208V367.389Z" fill="#F2F2F2"/>
<path d="M834.995 367.389H750.47V8.61066H949.294V80.3664H834.995V143.99H940.169V215.746H834.995V367.389Z" fill="#F2F2F2"/>
<path d="M1076.08 367.389H991.556V8.61066H1076.08V367.389Z" fill="#F2F2F2"/>
<path d="M1111.29 80.3664V8.61066H1330.29V80.3664H1262.09V367.389H1177.57V80.3664H1111.29Z" fill="#F2F2F2"/>
<path d="M1586.74 367.868H1529.11L1525.27 335.817H1524.31C1507.02 366.433 1487.81 376 1451.31 376C1379.75 376 1356.7 326.728 1356.7 261.669V114.331C1356.7 36.3562 1392.72 0 1470.04 0C1542.08 0 1584.82 30.6158 1584.82 103.807V130.595H1500.3V110.982C1500.3 80.3664 1496.45 65.0585 1473.88 64.5801C1447.47 64.1018 1441.22 78.4529 1441.22 101.893V279.369C1441.22 299.461 1450.35 311.42 1472.44 311.42C1501.26 311.42 1502.22 288.458 1502.22 265.496V237.272H1471.96V172.692H1586.74V367.868Z" fill="#F2F2F2"/>
<path d="M1771.48 260.234V112.896C1771.48 90.8906 1769.55 64.5801 1741.7 64.5801C1714.81 64.5801 1711.44 90.8906 1711.44 112.896V260.234C1711.44 280.804 1714.81 311.42 1742.18 311.42C1769.55 311.42 1771.48 280.804 1771.48 260.234ZM1856 107.155V253.059C1856 333.903 1827.67 376 1742.18 376C1656.7 376 1626.92 333.903 1626.92 253.059V107.155C1626.92 38.2697 1668.22 0 1742.18 0C1816.14 0 1856 38.2697 1856 107.155Z" fill="#F2F2F2"/>
</svg>
