<svg width="185" height="61" viewBox="0 0 185 61" fill="none" xmlns="http://www.w3.org/2000/svg">
<path d="M59.9585 17.9748C38.9943 -15.3067 -10.6041 6.39863 4.22233 42.5744" stroke="#404040" stroke-width="3" stroke-linecap="round"/>
<path d="M4.22266 18.9401L30.8116 18.9401" stroke="#404040" stroke-width="3" stroke-linecap="round"/>
<path d="M12.4023 24.2467L12.4023 53.1873" stroke="#404040" stroke-width="3" stroke-linecap="round"/>
<path d="M35.9336 31.9635L62.5226 31.9635" stroke="#404040" stroke-width="3" stroke-linecap="round"/>
<path d="M13.4219 31.9635L22.6258 31.9635" stroke="#404040" stroke-width="3" stroke-linecap="round"/>
<path d="M62.5123 31.9635C63.535 46.9161 41.0366 71.0332 12.4023 53.1866" stroke="#404040" stroke-width="3" stroke-linecap="round"/>
<path d="M82.4827 30.2592H94.3227V32.3072H82.4827V30.2592ZM82.7387 41.8112H80.3707V19.4112H95.7307V21.4592H82.7387V41.8112ZM100.141 41.8112V25.0112H102.413V41.8112H100.141ZM101.293 21.2992C100.823 21.2992 100.429 21.1392 100.109 20.8192C99.7887 20.4992 99.6287 20.1152 99.6287 19.6672C99.6287 19.2192 99.7887 18.8458 100.109 18.5472C100.429 18.2272 100.823 18.0672 101.293 18.0672C101.762 18.0672 102.157 18.2165 102.477 18.5152C102.797 18.8138 102.957 19.1872 102.957 19.6352C102.957 20.1045 102.797 20.4992 102.477 20.8192C102.178 21.1392 101.783 21.2992 101.293 21.2992ZM114.046 41.9712C112.468 41.9712 111.252 41.5445 110.398 40.6912C109.545 39.8378 109.118 38.6325 109.118 37.0752V21.2992H111.39V36.9472C111.39 37.9285 111.636 38.6858 112.126 39.2192C112.638 39.7525 113.364 40.0192 114.302 40.0192C115.305 40.0192 116.137 39.7312 116.798 39.1552L117.598 40.7872C117.15 41.1925 116.606 41.4912 115.966 41.6832C115.348 41.8752 114.708 41.9712 114.046 41.9712ZM106.11 26.8992V25.0112H116.51V26.8992H106.11ZM127.373 42.0032C125.922 42.0032 124.632 41.7685 123.501 41.2992C122.37 40.8085 121.474 40.1365 120.813 39.2832C120.173 38.4298 119.853 37.4378 119.853 36.3072C119.853 35.3472 120.066 34.4725 120.493 33.6832C120.92 32.8725 121.602 32.0832 122.541 31.3152C123.501 30.5258 124.77 29.7045 126.349 28.8512C127.693 28.1045 128.738 27.4645 129.485 26.9312C130.253 26.3765 130.797 25.8538 131.117 25.3632C131.437 24.8512 131.597 24.3072 131.597 23.7312C131.597 22.8992 131.309 22.2272 130.733 21.7152C130.178 21.2032 129.378 20.9472 128.333 20.9472C127.202 20.9472 126.328 21.2352 125.709 21.8112C125.09 22.3658 124.781 23.0912 124.781 23.9872C124.781 24.4352 124.845 24.8618 124.973 25.2672C125.122 25.6725 125.389 26.1205 125.773 26.6112C126.178 27.1018 126.733 27.7205 127.437 28.4672L139.277 40.6592L137.965 42.1632L125.613 29.4592C124.866 28.6698 124.269 27.9872 123.821 27.4112C123.394 26.8138 123.096 26.2485 122.925 25.7152C122.754 25.1818 122.669 24.6165 122.669 24.0192C122.669 23.0592 122.893 22.2272 123.341 21.5232C123.81 20.7978 124.472 20.2432 125.325 19.8592C126.178 19.4538 127.181 19.2512 128.333 19.2512C129.378 19.2512 130.285 19.4325 131.053 19.7952C131.842 20.1365 132.45 20.6378 132.877 21.2992C133.325 21.9605 133.549 22.7605 133.549 23.6992C133.549 24.5098 133.346 25.2672 132.941 25.9712C132.557 26.6752 131.917 27.3685 131.021 28.0512C130.125 28.7125 128.909 29.4592 127.373 30.2912C126.029 31.0378 124.962 31.7205 124.173 32.3392C123.405 32.9578 122.861 33.5658 122.541 34.1632C122.221 34.7392 122.061 35.3792 122.061 36.0832C122.061 36.8938 122.285 37.6085 122.733 38.2272C123.202 38.8245 123.842 39.2938 124.653 39.6352C125.485 39.9552 126.434 40.1152 127.501 40.1152C128.994 40.1152 130.328 39.8058 131.501 39.1872C132.674 38.5685 133.656 37.6298 134.445 36.3712C135.256 35.1125 135.842 33.5338 136.205 31.6352L138.029 32.2112C137.624 34.3445 136.93 36.1365 135.949 37.5872C134.968 39.0378 133.752 40.1365 132.301 40.8832C130.85 41.6298 129.208 42.0032 127.373 42.0032ZM153.163 42.0032C151.457 42.0032 149.878 41.7258 148.427 41.1712C146.998 40.5952 145.75 39.7952 144.683 38.7712C143.638 37.7472 142.817 36.5418 142.219 35.1552C141.643 33.7685 141.355 32.2538 141.355 30.6112C141.355 28.9685 141.643 27.4538 142.219 26.0672C142.817 24.6805 143.649 23.4752 144.715 22.4512C145.782 21.4272 147.03 20.6378 148.459 20.0832C149.91 19.5072 151.489 19.2192 153.195 19.2192C154.902 19.2192 156.459 19.4858 157.867 20.0192C159.297 20.5525 160.513 21.3632 161.515 22.4512L160.043 23.9552C159.105 23.0165 158.07 22.3445 156.939 21.9392C155.809 21.5338 154.593 21.3312 153.291 21.3312C151.905 21.3312 150.625 21.5658 149.451 22.0352C148.299 22.4832 147.286 23.1338 146.411 23.9872C145.558 24.8192 144.886 25.8005 144.395 26.9312C143.926 28.0405 143.691 29.2672 143.691 30.6112C143.691 31.9338 143.926 33.1605 144.395 34.2912C144.886 35.4218 145.558 36.4138 146.411 37.2672C147.286 38.0992 148.299 38.7498 149.451 39.2192C150.625 39.6672 151.894 39.8912 153.259 39.8912C154.539 39.8912 155.745 39.6992 156.875 39.3152C158.027 38.9312 159.083 38.2805 160.043 37.3632L161.387 39.1552C160.321 40.0938 159.073 40.8085 157.643 41.2992C156.214 41.7685 154.721 42.0032 153.163 42.0032ZM159.115 38.8672V30.6112H161.387V39.1552L159.115 38.8672ZM174.457 41.9712C172.836 41.9712 171.375 41.6085 170.073 40.8832C168.793 40.1365 167.78 39.1232 167.033 37.8432C166.287 36.5418 165.913 35.0592 165.913 33.3952C165.913 31.7098 166.287 30.2272 167.033 28.9472C167.78 27.6672 168.793 26.6645 170.073 25.9392C171.353 25.2138 172.815 24.8512 174.457 24.8512C176.121 24.8512 177.593 25.2138 178.873 25.9392C180.175 26.6645 181.188 27.6672 181.913 28.9472C182.66 30.2272 183.033 31.7098 183.033 33.3952C183.033 35.0592 182.66 36.5418 181.913 37.8432C181.188 39.1232 180.175 40.1365 178.873 40.8832C177.572 41.6085 176.1 41.9712 174.457 41.9712ZM174.457 39.9552C175.673 39.9552 176.751 39.6885 177.689 39.1552C178.628 38.6005 179.364 37.8325 179.897 36.8512C180.452 35.8485 180.729 34.6965 180.729 33.3952C180.729 32.0725 180.452 30.9205 179.897 29.9392C179.364 28.9578 178.628 28.2005 177.689 27.6672C176.751 27.1125 175.684 26.8352 174.489 26.8352C173.295 26.8352 172.228 27.1125 171.289 27.6672C170.351 28.2005 169.604 28.9578 169.049 29.9392C168.495 30.9205 168.217 32.0725 168.217 33.3952C168.217 34.6965 168.495 35.8485 169.049 36.8512C169.604 37.8325 170.351 38.6005 171.289 39.1552C172.228 39.6885 173.284 39.9552 174.457 39.9552Z" fill="#404040"/>
</svg>
